<svg width="512" height="390" viewBox="0 0 512 390" fill="none" xmlns="http://www.w3.org/2000/svg">
<mask id="mask0_1_387" style="mask-type:alpha" maskUnits="userSpaceOnUse" x="0" y="0" width="512" height="390">
<path d="M391 150C407.538 150 421 136.538 421 120C421 103.462 407.538 90 391 90C374.462 90 361 103.462 361 120V151.069C365.951 150.351 370.961 150 376 150H391Z" fill="black"/>
<path d="M391 0C354.99 0 323.013 16.273 301 41.472V0H0V120H331C331 86.909 357.909 60 391 60C424.091 60 451 86.909 451 120C451 153.091 424.091 180 391 180H376C357.008 180 346.663 186.48 331 191.367V150H0V230.142C0 328.288 67.7 386.927 69.789 390H232.211C234.694 386.863 274.063 353.108 291.903 292.874C298.885 297.33 307.119 300 316 300C340.814 300 361 279.814 361 255C361 246.724 367.724 240 376 240H391C457.167 240 512 186.167 512 120C512 53.833 457.167 0 391 0ZM76 81.211L54.789 60L76 38.789L97.211 60L76 81.211ZM151 81.211L129.789 60L151 38.789L172.211 60L151 81.211ZM226 81.211L204.789 60L226 38.789L247.211 60L226 81.211Z" fill="black"/>
</mask>
<g mask="url(#mask0_1_387)">
<path d="M291.527 113.711C334.429 250.677 329.662 398.791 256.57 452.409C183.477 505.497 42.0575 463.558 -50.1032 388.704C-142.264 313.32 -184.637 204.491 -156.565 87.6981C-129.022 -28.5636 -30.5058 -152.788 63.7736 -151.727C158.053 -150.134 248.625 -23.7857 291.527 113.711Z" fill="#89422E"/>
<path d="M254.542 321.398C143.644 230.284 66.5276 103.739 98.3278 18.849C130.419 -65.5965 271.716 -107.942 389.82 -95.7742C508.215 -83.1618 603.264 -15.3011 643.728 97.797C684.345 210.161 669.934 368.052 590.464 418.789C510.704 469.082 365.732 412.956 254.542 321.398Z" fill="#ECCCBC"/>
<path d="M-36.9525 768.841C-164.639 688.713 -239.889 560.947 -179.488 457.341C-118.797 354.179 77.8369 275.62 232.003 264.189C386.459 253.202 498.088 310.213 527.568 430.499C557.407 549.915 504.448 733.034 388.088 807.913C271.436 882.347 91.0242 849.413 -36.9525 768.841Z" fill="#CFD1C7"/>
</g>
</svg>
