<svg width="414" height="512" viewBox="0 0 414 512" fill="none" xmlns="http://www.w3.org/2000/svg">
<mask id="mask0_1_441" style="mask-type:alpha" maskUnits="userSpaceOnUse" x="0" y="0" width="414" height="512">
<path d="M41.938 158.533C21.784 181.373 4.141 207.553 0 241H413.764C409.623 207.553 391.98 181.373 371.826 158.533H41.938Z" fill="black"/>
<path d="M389.719 353.467C401.443 323.934 410.693 294.794 413.667 271H0.0970001C3.071 294.794 12.321 323.934 24.045 353.467H389.719Z" fill="black"/>
<path d="M335.415 482H327.813C340.26 459.406 359.726 422.594 377.08 383.467H36.684C54.038 422.594 73.504 459.407 85.951 482H78.349C58.468 482.738 58.483 511.269 78.349 512H335.415C355.296 511.262 355.281 482.731 335.415 482Z" fill="black"/>
<path d="M78.349 30H88.068C100.78 43.564 112.579 60.892 106.449 80.414C101.584 95.903 86.831 111.808 70.487 128.534H343.279C326.935 111.808 312.182 95.904 307.317 80.414C301.186 60.892 312.985 43.564 325.698 30H335.417C355.298 29.262 355.283 0.731 335.417 0H78.349C58.468 0.738 58.483 29.269 78.349 30Z" fill="black"/>
</mask>
<g mask="url(#mask0_1_441)">
<path d="M370.095 61.474C423.144 230.833 417.25 413.977 326.87 480.277C236.49 545.92 61.6244 494.062 -52.3328 401.505C-166.29 308.292 -218.684 173.724 -183.973 29.3089C-149.917 -114.449 -28.1005 -268.054 88.4764 -266.741C205.053 -264.772 317.046 -108.541 370.095 61.474Z" fill="#89422E"/>
<path d="M324.363 318.279C187.236 205.617 91.8818 49.1429 131.203 -55.8237C170.884 -160.241 345.599 -212.602 491.635 -197.556C638.031 -181.961 755.559 -98.0506 805.594 41.7958C855.816 180.734 837.998 375.968 739.733 438.705C641.108 500.893 461.849 431.492 324.363 318.279Z" fill="#ECCCBC"/>
<path d="M324.363 318.279C187.236 205.617 91.8818 49.1429 131.203 -55.8237C170.884 -160.241 345.599 -212.602 491.635 -197.556C638.031 -181.961 755.559 -98.0506 805.594 41.7958C855.816 180.734 837.998 375.968 739.733 438.705C641.108 500.893 461.849 431.492 324.363 318.279Z" fill="#ECCCBC"/>
<path d="M-36.072 871.546C-193.957 772.467 -287.005 614.484 -212.319 486.374C-137.273 358.814 105.866 261.675 296.493 247.541C487.479 233.955 625.508 304.449 661.96 453.184C698.857 600.843 633.373 827.27 489.492 919.858C345.253 1011.9 122.172 971.174 -36.072 871.546Z" fill="#CFD1C7"/>
</g>
</svg>
