<svg width="2600" height="1075" viewBox="0 0 2600 1075" fill="none" xmlns="http://www.w3.org/2000/svg">
<g clip-path="url(#clip0_6_84)">
<rect width="2600" height="1075" fill="#89422E"/>
<path d="M2344.37 184.956C2428.09 155.682 2515.7 165.732 2543.33 227.548C2570.65 289.342 2537.68 402.881 2488 474.895C2438 546.886 2371.01 576.899 2303.31 549.155C2235.9 521.865 2167.83 436.385 2173.85 359.573C2180.18 282.784 2260.33 214.208 2344.37 184.956Z" fill="#F9F6EC"/>
<path d="M445.717 150.406C669.389 255.322 851.786 433.659 834.845 588.724C817.23 743.173 599.601 873.732 397.476 903.536C194.677 932.722 7.32352 859.864 -108.237 688.407C-223.739 518.238 -266.831 248.799 -155.876 130.471C-44.2469 12.7608 221.372 44.8727 445.717 150.406Z" fill="#43190E" fill-opacity="0.25"/>
<path d="M2408.7 825.141C2279.91 788.424 2184.05 698.071 2209.91 594.712C2236.12 491.66 2384.41 375.909 2513.1 327.952C2642.15 280.301 2751.51 301.275 2806.47 396.59C2861.52 491.074 2861.72 660.423 2781 753.142C2699.93 845.553 2537.85 862.165 2408.7 825.141Z" fill="#CFD1C7"/>
<path d="M2759.82 167.21C2739.85 79.2398 2686.86 4.65262 2623.89 6.30861C2561.09 8.2388 2488.5 86.6864 2457.25 162.355C2426.18 238.298 2436.96 311.523 2493.67 360.574C2549.86 409.564 2652.3 434.168 2709.79 395.762C2767.1 357.082 2779.97 255.455 2759.82 167.21Z" fill="#ECCCBC"/>
</g>
<defs>
<clipPath id="clip0_6_84">
<rect width="2600" height="1075" fill="white"/>
</clipPath>
</defs>
</svg>
